<?xml version="1.0" encoding="UTF-8" standalone="no"?>
<!-- Created with Inkscape (http://www.inkscape.org/) -->

<svg
   width="112.8595"
   height="201.67896"
   viewBox="0 0 112.8595 201.67896"
   version="1.1"
   id="svg5"
   xml:space="preserve"
   xmlns="http://www.w3.org/2000/svg"
   xmlns:svg="http://www.w3.org/2000/svg"><defs
     id="defs2" /><g
     id="g1751-55-8-6"
     transform="translate(1483.9111,-636.24627)"
     style="fill:#666666"><path
       style="fill:#f9f9f9;fill-opacity:1"
       d="m -1380.5722,648.74213 -16.2645,17.05786 v 51.96694 l 16.2645,16.66115 9.5206,-13.0909 v -58.71075 z"
       id="path1737-5-9-5" /><path
       style="fill:#f9f9f9;fill-opacity:1"
       d="m -1470.5924,645.76693 17.0578,16.26447 h 51.967 l 16.6611,-16.26447 -13.0909,-9.52066 h -58.7107 z"
       id="path1739-0-5-2" /><path
       style="fill:#f9f9f9;fill-opacity:1"
       d="m -1470.7402,828.40457 17.0578,-16.26447 h 51.967 l 16.6611,16.26447 -13.0909,9.52066 h -58.7107 z"
       id="path1741-7-3-2" /><path
       style="fill:#f9f9f9;fill-opacity:1"
       d="m -1380.5722,739.18841 -16.2645,17.05786 v 51.96694 l 16.2645,16.66115 9.5206,-13.0909 v -58.71075 z"
       id="path1743-76-6-7" /><path
       style="fill:#f9f9f9;fill-opacity:0.05"
       d="m -1474.3904,648.54379 16.2645,17.05786 v 51.96694 l -16.2645,16.66115 -9.5207,-13.0909 v -58.71075 z"
       id="path1745-3-8-3" /><path
       style="fill:#f9f9f9;fill-opacity:0.05"
       d="m -1474.3904,738.99007 16.2645,17.05786 v 51.96694 l -16.2645,16.66115 -9.5207,-13.0909 v -58.71075 z"
       id="path1747-75-7-1" /><path
       style="fill:#f9f9f9;fill-opacity:1"
       d="m -1456.0637,724.82311 -13.7448,12.06172 13.6045,13.6045 h 56.9426 l 13.3941,-13.39412 -12.4124,-12.41235 z"
       id="path1749-7-0-6" /></g></svg>
