<?xml version="1.0" encoding="UTF-8" standalone="no"?>
<!-- Created with Inkscape (http://www.inkscape.org/) -->

<svg
  width="112.85956"
  height="201.67896"
  viewBox="0 0 112.85956 201.67896"
  version="1.1"
  id="svg5"
  xml:space="preserve"
  xmlns="http://www.w3.org/2000/svg"
  xmlns:svg="http://www.w3.org/2000/svg"><defs
     id="defs2" /><g
     id="g1751-55-8-4-0-8-5-8"
     transform="translate(1022.9682,-537.08994)"
     style="fill:#666666"><path
       style="fill:#f9f9f9;fill-opacity:1"
       d="m -919.6293,549.5858 -16.26447,17.05786 v 51.96694 l 16.26447,16.66115 9.52066,-13.0909 V 563.4701 Z"
       id="path1737-5-9-3-5-7-2-4" /><path
       style="fill:#f9f9f9;fill-opacity:1"
       d="m -1009.6495,546.6106 17.05786,16.26447 h 51.96694 l 16.66115,-16.26447 -13.0909,-9.52066 h -58.71075 z"
       id="path1739-0-5-28-8-3-4-8" /><path
       style="fill:#f9f9f9;fill-opacity:1"
       d="m -1009.7973,729.24824 17.05786,-16.26447 h 51.96694 l 16.66115,16.26447 -13.0909,9.52066 H -995.913 Z"
       id="path1741-7-3-7-8-0-8-8" /><path
       style="fill:#f9f9f9;fill-opacity:1"
       d="m -919.6293,640.03208 -16.26447,17.05786 v 51.96694 l 16.26447,16.66115 9.52066,-13.0909 v -58.71075 z"
       id="path1743-76-6-2-3-4-7-6" /><path
       style="fill:#f9f9f9;fill-opacity:1"
       d="m -1013.4475,549.38746 16.26448,17.05786 v 51.96694 l -16.26448,16.66115 -9.5207,-13.0909 v -58.71075 z"
       id="path1745-3-8-5-7-8-9-1" /><path
       style="fill:#f9f9f9;fill-opacity:1"
       d="m -1013.4475,639.83374 16.26448,17.05786 v 51.96694 l -16.26448,16.66115 -9.5207,-13.0909 v -58.71075 z"
       id="path1747-75-7-4-3-0-7-5" /><path
       style="fill:#f9f9f9;fill-opacity:0.05"
       d="m -995.12077,625.66678 -13.74483,12.06172 13.60453,13.6045 h 56.9426 l 13.3941,-13.39412 -12.4124,-12.41235 z"
       id="path1749-7-0-1-6-0-0-94" /></g>
       </svg>